<?xml version="1.0" encoding="utf-8"?>
<svg width="1024" height="1024" viewBox="0 0 1024 1024" xmlns="http://www.w3.org/2000/svg">
  <defs>
    <linearGradient id="bg" x1="0" y1="0" x2="0" y2="1">
      <stop offset="0" stop-color="#FBFBFD"/>
      <stop offset="1" stop-color="#E8E9EE"/>
    </linearGradient>
    <clipPath id="prism">
      <path d="M487.83,319.44,295.63,36.88a48,48,0,0,0-79.26,0L24.17,319.44A47.1,47.1,0,0,0,41.1,387.57L233.3,490.32a48.05,48.05,0,0,0,45.4,0L470.9,387.57a47.1,47.1,0,0,0,16.93-68.13Z"/>
    </clipPath>
    <linearGradient id="bands" gradientUnits="userSpaceOnUse" x1="256" y1="37" x2="417.5" y2="410.6">
      <stop offset="0" stop-color="#FF3B30"/>
      <stop offset="0.1667" stop-color="#FF3B30"/>
      <stop offset="0.1667" stop-color="#FF9500"/>
      <stop offset="0.3333" stop-color="#FF9500"/>
      <stop offset="0.3333" stop-color="#FFCC00"/>
      <stop offset="0.5" stop-color="#FFCC00"/>
      <stop offset="0.5" stop-color="#34C759"/>
      <stop offset="0.6667" stop-color="#34C759"/>
      <stop offset="0.6667" stop-color="#007AFF"/>
      <stop offset="0.8333" stop-color="#007AFF"/>
      <stop offset="0.8333" stop-color="#AF52DE"/>
      <stop offset="1" stop-color="#AF52DE"/>
    </linearGradient>
    <linearGradient id="frost" gradientUnits="userSpaceOnUse" x1="128" y1="37" x2="128" y2="490">
      <stop offset="0" stop-color="#FFFFFF" stop-opacity="0.85"/>
      <stop offset="1" stop-color="#FFFFFF" stop-opacity="0.6"/>
    </linearGradient>
  </defs>
  <!-- macOS squircle plate: 824x824 centered, transparent margins -->
  <rect x="100" y="100" width="824" height="824" rx="185" ry="185" fill="url(#bg)"/>
  <rect x="100.5" y="100.5" width="823" height="823" rx="184.5" ry="184.5" fill="none" stroke="#000000" stroke-opacity="0.06"/>
  <!-- Frosted prism: faces indicated by light, not linework -->
  <g transform="translate(192,192) scale(1.25)">
    <g clip-path="url(#prism)">
      <rect x="0" y="0" width="512" height="512" fill="url(#bands)"/>
      <rect x="0" y="0" width="256" height="512" fill="url(#frost)"/>
    </g>
  </g>
</svg>
